<svg xmlns="http://www.w3.org/2000/svg" viewBox="0 0 135.467 135.467"><g fill="#fff" transform="translate(0 1.041)"><path style="-inkscape-stroke:none" d="M 14.816668,23.283333 H 120.65 c 2.34527,0 4.23334,1.888067 4.23334,4.233335 V 120.65 c 0,2.34526 -1.88807,4.23333 -4.23334,4.23333 H 14.816668 c -2.345268,0 -4.233335,-1.88807 -4.233335,-4.23333 V 27.516668 c 0,-2.345268 1.888067,-4.233335 4.233335,-4.233335 z" color="#000"/><path style="-inkscape-stroke:none" fill="#4d5152" d="m 14.816406,21.166016 c -3.481192,0 -6.3496091,2.870369 -6.3496091,6.351562 v 93.132812 c 0,3.48119 2.8684151,6.34961 6.3496091,6.34961 H 120.65039 C 124.13159,127 127,124.13158 127,120.65039 V 27.517578 c 0,-3.481194 -2.86842,-6.351562 -6.34961,-6.351562 z m 0,4.234375 H 120.65039 c 1.20934,0 2.11719,0.90785 2.11719,2.117187 v 93.132812 c 0,1.20933 -0.90785,2.11719 -2.11719,2.11719 H 14.816406 c -1.209337,0 -2.117187,-0.90786 -2.117187,-2.11719 V 27.517578 c 0,-1.209338 0.907849,-2.117187 2.117187,-2.117187 z" color="#000"/><path fill="#f28c13" fill-rule="evenodd" d="m 21.167101,42.333324 h 93.133329 c 2.34527,0 4.23334,1.888067 4.23334,4.233334 v 67.733332 c 0,2.34526 -1.88807,4.23333 -4.23334,4.23333 H 21.167101 c -2.345267,0 -4.233334,-1.88807 -4.233334,-4.23333 V 46.566658 c 0,-2.345267 1.888067,-4.233334 4.233334,-4.233334 z" paint-order="markers fill stroke"/><path style="-inkscape-stroke:none" fill="#67dde0" d="m 63.500001,10.583333 h 8.466665 c 8.208434,0 14.816667,6.608233 14.816667,14.816667 v 8.466665 c 0,8.208433 -6.608233,14.816666 -14.816667,14.816666 h -8.466665 c -8.208433,0 -14.816667,-6.608233 -14.816667,-14.816666 V 25.4 c 0,-8.208434 6.608234,-14.816667 14.816667,-14.816667 z" color="#000"/><path style="-inkscape-stroke:none" fill="#67dde0" d="m 63.5,8.4667969 c -9.344352,0 -16.933594,7.5892401 -16.933594,16.9335941 v 8.466796 c 0,9.344353 7.589242,16.933594 16.933594,16.933594 h 8.466797 c 9.344353,0 16.933594,-7.589241 16.933594,-16.933594 v -8.466796 c 0,-9.344354 -7.589241,-16.9335941 -16.933594,-16.9335941 z m 0,4.2324221 h 8.466797 c 7.072498,0 12.699219,5.628673 12.699219,12.701172 v 8.466796 c 0,7.072498 -5.626721,12.699219 -12.699219,12.699219 H 63.5 c -7.072497,0 -12.699219,-5.626721 -12.699219,-12.699219 v -8.466796 c 0,-7.072499 5.626722,-12.701172 12.699219,-12.701172 z" color="#000"/><path style="-inkscape-stroke:none" fill="#abeff1" d="M 76.820312,21.787109 63.5,35.107422 58.646484,30.253906 a 2.1164949,2.1164949 0 0 0 -2.992187,0 2.1164949,2.1164949 0 0 0 0,2.992188 l 6.349609,6.349609 a 2.1167065,2.1167065 0 0 0 2.992188,0 L 79.8125,24.779297 a 2.1164949,2.1164949 0 0 0 0,-2.992188 2.1164949,2.1164949 0 0 0 -2.992188,0 z" color="#000"/><path style="-inkscape-stroke:none" fill="#ffb957" d="M45.396484 55.257812a2.1164949 2.1164949 0 00-2.839843.945313l-4.232422 8.466797a2.1164949 2.1164949 0 00.945312 2.839844 2.1164949 2.1164949 0 002.839844-.947266l4.234375-8.466797a2.1164949 2.1164949 0 00-.947266-2.837891zM51.419922 55.654297a2.1164949 2.1164949 0 000 2.992187l2.736328 2.736328-2.736328 2.736329a2.1164949 2.1164949 0 000 2.99414 2.1164949 2.1164949 0 002.99414 0l4.232422-4.232422a2.1167065 2.1167065 0 000-2.99414l-4.232422-4.232422a2.1164949 2.1164949 0 00-2.99414 0zM31.75 55.033203a2.1164949 2.1164949 0 00-1.496094.621094l-4.234375 4.232422a2.1167065 2.1167065 0 000 2.99414l4.234375 4.232422a2.1164949 2.1164949 0 002.992188 0 2.1164949 2.1164949 0 000-2.99414l-2.736328-2.736329 2.736328-2.736328a2.1164949 2.1164949 0 000-2.992187A2.1164949 2.1164949 0 0031.75 55.033203z" color="#000"/><path fill="#ffb957" d="M84.666662 57.14999a2.1166666 2.1166666 0 01-2.116667 2.116667 2.1166666 2.1166666 0 01-2.116666-2.116667 2.1166666 2.1166666 0 012.116666-2.116666 2.1166666 2.1166666 0 012.116667 2.116666zM93.133329 57.14999a2.1166666 2.1166666 0 01-2.116666 2.116667 2.1166666 2.1166666 0 01-2.116667-2.116667 2.1166666 2.1166666 0 012.116667-2.116666 2.1166666 2.1166666 0 012.116666 2.116666zM101.6 57.14999A2.1166666 2.1166666 0 0199.48333 59.266657 2.1166666 2.1166666 0 0197.366663 57.14999 2.1166666 2.1166666 0 0199.48333 55.033324 2.1166666 2.1166666 0 01101.6 57.14999zM110.06666 57.14999A2.1166666 2.1166666 0 01107.95 59.266657 2.1166666 2.1166666 0 01105.83333 57.14999 2.1166666 2.1166666 0 01107.95 55.033324 2.1166666 2.1166666 0 01110.06666 57.14999z"/><path style="-inkscape-stroke:none" fill="#ffb957" d="M82.550781 63.5a2.1164949 2.1164949 0 00-2.117187 2.117187 2.1164949 2.1164949 0 002.117187 2.115235H107.94922A2.1164949 2.1164949 0 00110.06641 65.617187 2.1164949 2.1164949 0 00107.94922 63.5zM27.517578 80.433594a2.1164949 2.1164949 0 00-2.117187 2.117187 2.1164949 2.1164949 0 002.117187 2.115235h21.166016a2.1164949 2.1164949 0 002.117187-2.115235 2.1164949 2.1164949 0 00-2.117187-2.117187zM35.982422 88.900391a2.1164949 2.1164949 0 00-2.115235 2.117187 2.1164949 2.1164949 0 002.115235 2.115234h12.701172a2.1164949 2.1164949 0 002.117187-2.115234 2.1164949 2.1164949 0 00-2.117187-2.117187zM57.150391 88.900391a2.1164949 2.1164949 0 00-2.117188 2.117187 2.1164949 2.1164949 0 002.117188 2.115234h12.699218a2.1164949 2.1164949 0 002.117188-2.117187 2.1164949 2.1164949 0 00-2.117188-2.115234zM35.982422 97.367187a2.1164949 2.1164949 0 00-2.115235 2.115235 2.1164949 2.1164949 0 002.115235 2.117188h8.466797a2.1164949 2.1164949 0 002.117187-2.117188 2.1164949 2.1164949 0 00-2.117187-2.115235zM52.916016 97.367187a2.1164949 2.1164949 0 00-2.115235 2.115235 2.1164949 2.1164949 0 002.115235 2.117188h12.701171a2.1164949 2.1164949 0 002.115235-2.117188 2.1164949 2.1164949 0 00-2.115235-2.115235zM78.316406 88.900391a2.1164949 2.1164949 0 00-2.117187 2.115234 2.1164949 2.1164949 0 002.117187 2.117187h8.466797a2.1164949 2.1164949 0 002.117188-2.117187 2.1164949 2.1164949 0 00-2.117188-2.115234zM95.25 88.900391A2.1164949 2.1164949 0 0093.132812 91.015625 2.1164949 2.1164949 0 0095.25 93.132812h8.4668a2.1164949 2.1164949 0 002.11718-2.117187 2.1164949 2.1164949 0 00-2.11718-2.115234zM74.083984 97.367187a2.1164949 2.1164949 0 00-2.117187 2.115235 2.1164949 2.1164949 0 002.117187 2.117188h12.699219a2.1164949 2.1164949 0 002.117188-2.117188 2.1164949 2.1164949 0 00-2.117188-2.115235zM95.25 97.367187A2.1164949 2.1164949 0 0093.132812 99.482422 2.1164949 2.1164949 0 0095.25 101.59961h8.4668a2.1164949 2.1164949 0 002.11718-2.117188 2.1164949 2.1164949 0 00-2.11718-2.115235zM27.517578 105.83398a2.1164949 2.1164949 0 00-2.117187 2.11524 2.1164949 2.1164949 0 002.117187 2.11719h16.931641a2.1164949 2.1164949 0 002.117187-2.11719 2.1164949 2.1164949 0 00-2.117187-2.11524z" color="#000"/></g></svg>