<svg xmlns="http://www.w3.org/2000/svg" fill-rule="evenodd" clip-rule="evenodd" image-rendering="optimizeQuality" shape-rendering="geometricPrecision" text-rendering="geometricPrecision" viewBox="0 0 1707 1707"><path fill="#58deff" d="M114 1449l0 -832c0,-202 165,-367 368,-367l755 0c203,0 368,165 368,367l0 832 -1491 0z"/><path fill="#bdbfc1" d="M1491 1680l-1262 0c-123,0 -222,-100 -222,-222 0,-26 21,-48 47,-48l1612 0c26,0 47,22 47,48 0,122 -99,222 -222,222z"/><path fill="#333" d="M967 1568l-214 0c-12,0 -23,-10 -23,-23 0,-12 11,-23 23,-23l214 0c12,0 22,11 22,23 0,13 -10,23 -22,23z"/><path fill="#bce2f6" d="M1337 1258l-930 0c-46,0 -81,-53 -81,-121l0 -996c0,-60 35,-107 81,-107l930 0c46,0 81,47 81,107l0 996c0,68 -35,121 -81,121z"/><path fill="#ed3237" d="M1266 431c7,0 12,-6 12,-13l0 -287c0,-7 -5,-12 -12,-12l-454 0c-7,0 -13,5 -13,12l0 287c0,7 6,13 13,13l454 0z"/><path fill="#fff" d="M998 369c3,0 7,-1 9,-4l81 -81c3,-3 4,-6 4,-9 0,-4 -1,-7 -4,-9l-81 -82c-4,-3 -9,-4 -14,-2 -5,2 -8,6 -8,11l0 163c0,5 3,10 8,12 2,1 3,1 5,1z"/><path fill="#333" d="M1241 1026c-13,0 -23,-10 -23,-22l0 -408c0,-13 10,-23 23,-23 12,0 23,10 23,23l0 408c0,12 -11,22 -23,22zm-738 -319c-12,0 -22,-10 -22,-23l0 -407c0,-13 10,-23 22,-23 13,0 23,10 23,23l0 407c0,13 -10,23 -23,23z"/><path fill="#e3b486" d="M673 920c-3,0 -7,-1 -10,-2 -9,-6 -12,-17 -7,-27l45 -78c6,-9 153,-9 158,0l45 78c6,10 2,21 -7,27 -3,1 -6,2 -9,2 -56,29 -159,26 -215,0z"/><path fill="#cca279" d="M684 844l17 -31c6,-9 153,-9 158,0l18 31c-27,20 -61,32 -97,32 -36,0 -69,-12 -96,-32z"/><path fill="#ffe600" d="M1073 1175c-423,0 -428,0 -586,0 -11,0 -19,-9 -19,-20l0 -51c0,-106 75,-189 200,-222 7,-1 14,1 19,6 24,26 58,41 93,41 35,0 69,-15 93,-41 5,-5 12,-7 19,-6 126,33 201,116 201,222l0 51c0,11 -9,20 -20,20z"/><path fill="#ffba00" d="M607 1175l0-138c0-6-4-11-10-11-6 0-11 5-11 11l0 138 21 0zM769 967l0 208 22 0 0-208c0-6-5-10-11-10-6 0-11 4-11 10zM953 1037l0 138 21 0 0-138c0-6-4-11-10-11-6 0-11 5-11 11z"/><path fill="#e3b486" d="M780 859c-80,0 -145,-65 -145,-145l0 -85c0,-79 65,-144 145,-144 80,0 145,65 145,144l0 85c0,80 -65,145 -145,145z"/><path fill="#333" d="M635 653l0 -24c0,-6 1,-12 1,-18l1 -1c0,-1 0,-1 0,-2l0 -2 0 -1 1 -2 0 -2 0 -1 1 -3 0 -1 1 -2 0 -1 1 -2 0 -1 1 -3 0 -1c0,-1 0,-2 1,-3l0 0c0,-1 1,-2 1,-3l0 0 0 -1c1,-1 1,-2 1,-2l1 -2 1 -2 0 -1 1 -2 0 -1 1 -2 1 -1 1 -2 0 -1 2 -2 0 -1 1 -2 1 -1 1 -2 1 -1 0 -2 1 -1 2 -2 0 -1c1,0 1,-1 2,-2l0 0c1,-1 1,-2 2,-3l0 0 0 0c1,-2 3,-4 4,-6l1 0 1 -2 1 -1 2 -2 1 -1 1 -1 1 -1 1 -1 1 -2 2 -1 1 -1 1 -1 1 -1 2 -2 1 0 1 -2 1 0 2 -2 1 -1 2 -1 1 -1c0,0 1,-1 2,-2l0 0c1,0 2,-1 3,-2l1 0 2 -1 1 -1 2 -1 1 -1 2 -1 1 -1 2 -1 1 0 2 -1 1 -1 2 -1 1 0 2 -1 1 -1 2 -1 1 0 2 -1 1 0 3 -1 1 -1c0,0 1,0 2,-1l1 0 0 0c1,0 2,-1 3,-1l0 0 1 0 2 -1 2 0 2 -1 1 0 2 -1 1 0 2 0 2 -1 2 0 1 0 2 -1 2 0 2 0 1 0 2 -1 2 0 2 0 1 0 2 0 2 0 0 0c1,0 2,0 3,0l1 0c1,0 2,0 3,0 1,0 3,0 4,0l0 0c1,0 2,0 3,0l0 0 2 0 2 0 2 0 2 0 1 0 2 1 2 0 2 0 1 0 2 1 2 0 2 0 1 1 2 0 2 1 2 0 1 0 2 1 1 0 2 1 2 0 2 1 1 0 2 1 1 1 2 0 2 1 2 1 1 0 2 1 1 1 2 0 1 1 2 1 1 1c1,0 2,0 3,1l0 0 2 1 1 1 0 0c1,0 2,1 3,2l0 0 1 0 2 1 1 1 2 1 0 1 3 1 1 1 2 1 1 1 1 1 1 1 2 1 1 1 2 2 0 0 2 2 1 1 2 1 1 1 1 2 1 1 1 1 1 1 2 1 1 2 1 1 1 1 1 2 1 1 1 1 1 1 2 2 0 1 2 2 0 1 1 1 1 2 2 2 0 0c1,1 1,2 2,3l0 0c1,1 1,2 2,3l0 0 0 0c0,1 1,2 1,3l0 0c1,1 2,2 2,3l0 0 1 2 1 1 0 2c1,0 1,1 1,2l1 1 0 2 1 1 1 2 0 2 1 1 1 2 0 1 1 2 0 2 1 1 0 2 1 1 0 3 1 1 0 2 0 1 1 2 0 2 1 2 0 2 0 1 0 2 1 2 0 1 0 3 0 1c0,1 0,2 0,2l1 2c0,3 0,7 0,10l0 34 -1 -1c-126,-73 -275,-16 -289,-9z"/></svg>