<svg xmlns="http://www.w3.org/2000/svg" viewBox="0 0 135.467 135.467"><g fill="#fff" transform="translate(0 1.041)"><path style="-inkscape-stroke:none" fill="#f28c13" d="M 67.733332,10.583333 A 57.150085,57.150085 0 0 0 10.583333,67.733332 57.150085,57.150085 0 0 0 67.733332,124.88333 57.150085,57.150085 0 0 0 124.88333,67.733332 57.150085,57.150085 0 0 0 122.75685,52.304817 C 116.00293,61.206637 93.926604,67.733333 67.733332,67.733332 99.296354,67.733285 124.88328,42.146355 124.88333,10.583333 124.88308,22.152915 99.819608,31.552822 68.705883,31.745349 70.932565,23.43443 76.811559,16.617133 84.518354,13.12168 A 57.150085,57.150085 0 0 0 67.733332,10.583333 Z" color="#000"/><path style="-inkscape-stroke:none" fill="#4d5152" d="M 67.732422,8.4667969 C 35.025565,8.4668461 8.4668461,35.025565 8.4667969,67.732422 8.4668467,100.43928 35.025565,126.99995 67.732422,127 100.43928,126.99995 126.99995,100.43928 127,67.732422 c -0.002,-5.408931 -0.74334,-10.792329 -2.20508,-16 a 2.1167065,2.1167065 0 0 0 -3.72461,-0.707031 c -2.85633,3.764713 -9.71282,7.619411 -19.11523,10.296875 -1.964089,0.5593 -4.095178,1.04218 -6.263674,1.503906 C 114.31503,52.829458 126.99996,33.180756 127,10.583984 a 2.1167065,2.1167065 0 0 0 -4.23242,0 c -5e-5,2.128231 -1.13952,4.318168 -3.68945,6.576172 -2.54994,2.258004 -6.44813,4.44077 -11.36133,6.289063 -9.133475,3.435909 -21.810104,5.658708 -35.867191,6.042968 2.527962,-6.378916 7.320784,-11.621257 13.542969,-14.443359 a 2.1167065,2.1167065 0 0 0 -0.25,-3.949219 C 79.503777,9.3605048 73.63722,8.4728043 67.736328,8.4667969 a 2.1167065,2.1167065 0 0 0 -0.0039,0 z m -0.002,4.2324221 h 0.002 c 3.771038,0.004 7.499279,0.536406 11.18164,1.30664 -5.892058,4.081624 -10.346135,10.078089 -12.251953,17.191407 a 2.1167065,2.1167065 0 0 0 2.056641,2.664062 c 15.766459,-0.09756 30.004482,-2.505331 40.48828,-6.449219 5.22716,-1.9664 9.52675,-4.308177 12.64649,-7.0625 -4.60893,25.743735 -27.041077,45.267538 -54.121098,45.267578 a 2.1167065,2.1167065 0 0 0 0,4.232422 c 13.272415,10e-7 25.510287,-1.645697 35.382808,-4.457031 7.83983,-2.232496 14.12426,-5.160529 18.3711,-8.830078 0.76554,3.679252 1.28019,7.407215 1.28125,11.171875 -10e-4,30.418277 -24.61663,55.033155 -55.035158,55.033205 -30.419186,-5e-5 -55.033157,-24.615972 -55.033203,-55.035158 4.6e-5,-30.418529 24.612972,-55.032093 55.03125,-55.033203 z" color="#000"/><path style="-inkscape-stroke:none" d="M 99.483334,80.433334 A 44.450001,44.450001 0 0 1 55.033333,124.88334 44.450001,44.450001 0 0 1 10.583332,80.433334 a 44.450001,44.450001 0 0 1 44.450001,-44.45 44.450001,44.450001 0 0 1 44.450001,44.45 z" color="#000"/><path style="-inkscape-stroke:none" fill="#4d5152" d="m 55.033203,33.867187 c -25.69287,0 -46.5664055,20.873536 -46.5664061,46.566407 C 8.466794,106.12647 29.34033,127 55.033203,127 c 25.692873,0 46.566407,-20.87353 46.566407,-46.566406 0,-25.692871 -20.873537,-46.566407 -46.566407,-46.566407 z m 0,4.232422 c 23.405195,0 42.333984,18.92879 42.333984,42.333985 3e-6,23.405196 -18.928786,42.333986 -42.333984,42.333986 -23.405197,0 -42.333987,-18.92879 -42.333984,-42.333986 0,-23.405195 18.928789,-42.333985 42.333984,-42.333985 z" color="#000"/><path style="-inkscape-stroke:none" fill="#67dde0" d="M 55.033333,44.449829 A 35.983505,35.983505 0 0 1 90.470168,74.184865 35.983505,35.983505 0 0 1 67.340416,114.24677 35.983505,35.983505 0 0 1 23.870703,98.425086 l 31.16263,-17.991752 z" color="#000"/><path style="-inkscape-stroke:none" fill="#67dde0" d="m 55.033203,42.333984 a 2.1167065,2.1167065 0 0 0 -2.117187,2.115235 V 79.210937 L 22.8125,96.591797 a 2.1167065,2.1167065 0 0 0 -0.775391,2.890625 C 31.274916,115.48277 50.703054,122.55536 68.064453,116.23633 85.425852,109.9173 95.762945,92.011335 92.554687,73.816406 89.346431,55.621477 73.508818,42.333984 55.033203,42.333984 Z m 2.117188,4.419922 c 15.511141,0.97419 28.505078,12.309136 31.236328,27.798828 2.856423,16.19958 -6.312073,32.079026 -21.769532,37.705076 -14.780238,5.37957 -31.092232,-0.20612 -39.691406,-13.152341 L 56.091797,82.265625 a 2.1167065,2.1167065 0 0 0 1.058594,-1.832031 z" color="#000"/><g><path style="-inkscape-stroke:none" d="M 20.275935,89.74655 A 35.983505,35.983505 0 0 1 45.720117,45.675937" color="#000"/><path style="-inkscape-stroke:none" fill="#f28c13" d="M 45.171875,43.630859 C 24.871051,49.070448 12.792833,69.994098 18.232422,90.294922 a 2.1164949,2.1164949 0 0 0 2.591797,1.496094 2.1164949,2.1164949 0 0 0 1.496093,-2.591797 C 17.472817,71.10812 28.176479,52.568198 46.267578,47.720703 a 2.1164949,2.1164949 0 0 0 1.496094,-2.591797 2.1164949,2.1164949 0 0 0 -2.591797,-1.498047 z" color="#000"/></g></g></svg>